<?xml version="1.0" standalone="no"?>
<!DOCTYPE svg PUBLIC "-//W3C//DTD SVG 20010904//EN"
 "http://www.w3.org/TR/2001/REC-SVG-20010904/DTD/svg10.dtd">
<svg version="1.0" xmlns="http://www.w3.org/2000/svg"
 width="217.000000pt" height="78.000000pt" viewBox="0 0 217.000000 78.000000"
 preserveAspectRatio="xMidYMid meet">

<g transform="translate(0.000000,78.000000) scale(0.100000,-0.100000)"
fill="#000000" stroke="none">
<path d="M468 562 l-53 -48 -102 9 c-79 8 -106 7 -118 -3 -24 -20 -18 -27 38
-48 28 -11 65 -25 81 -31 l29 -12 -38 -39 c-33 -33 -42 -38 -71 -33 -32 5 -64
-9 -64 -28 0 -5 18 -19 40 -31 22 -13 45 -35 51 -50 6 -15 18 -33 26 -40 22
-18 46 17 38 57 -4 26 1 37 35 70 l39 38 11 -29 c6 -16 18 -49 27 -74 22 -60
30 -68 50 -48 14 15 15 29 6 120 l-10 103 43 46 c48 52 61 84 44 104 -21 25
-46 17 -102 -33z"/>
<path d="M588 43 c277 -2 727 -2 1000 0 273 1 47 2 -503 2 -550 0 -774 -1
-497 -2z"/>
</g>
</svg>
